<svg xmlns="http://www.w3.org/2000/svg" viewBox="0 0 388.72 187.15"><defs><style>.cls-1{fill:#2a2a2a;}</style></defs><g id="Layer_2" data-name="Layer 2"><g id="Camada_1" data-name="Camada 1"><path class="cls-1" d="M80.21,19.59a6,6,0,0,0,1.68,2.08l3-11.2c-19.79,7.07-27.69,32.35-31,51.17C51.86,73,50.37,84.51,52.1,96c1.59,10.65,6.64,20.08,9.07,30.44.22,1,.47,2,.36,1.21l.1,1.42c-.05,1.56,0,1.84,0,.84l.12-.25c.25-.51.14-.36-.34.46-.39-.39,1.91-1.74.07-.21s1.8-.65-.91.65c-2.21,1.05,2.53-.29.11-.07a16.56,16.56,0,0,0-2.17.49c3.52-.83-.33-.2-1.39-.17-3.26.1,1.67.6-1.58-.13-1.17-.26-2.33-.5-3.48-.85-.63-.19-1.24-.45-1.87-.62-2.42-.63,1.92,1-.31-.12a39.7,39.7,0,0,1-6.42-3.61c2.46,1.91-2.18-2.09.06,0a4.48,4.48,0,0,1-.67-1c-.71-1.68.72,1.3-.07-.13-.57-1-.5,1,0-.08.23-.53-.46-1.2-.06.35.35,1.35-.83.26.15-.14.7-.3-.86.81.35-.42a17.28,17.28,0,0,1,7.36-3.89c12.44-3.63,25-3.2,35.93-11.29a46.9,46.9,0,0,0,18.35-28.45,2.78,2.78,0,0,0-5-2.13C93,87.72,85.31,98.73,74.09,103.36c-10.58,4.35-22.55,2.93-33.3,6.63-6.31,2.17-11.9,6.45-13.47,13.24s1.68,13.69,5.93,18.89c9.45,11.57,28,16.37,40.87,7.81,24.15-16,.76-43.1.48-64-.16-11.91,2-23.25,5.21-34.85C83,39.71,89.08,29.74,93.09,18.72c2.56-7.07-9-12-12.25-5.17-1,2.11-1.57,3.81-.63,6Z"/><path class="cls-1" d="M98.71,143c1.67-5.59,1.27-11.63,2.28-17.38a104,104,0,0,1,4.69-18.12c4.17-11.35,14.17-21.05,14.63-33.43.15-4-3.79-6.29-7.3-5.56-14.54,3-21.4,22.31-24.88,35-3.37,12.27-5.5,31.07,3.92,41.28,2.09,2.26,5.83,1,6.66-1.76Z"/><path class="cls-1" d="M98.76,141.84c8.74-25.11,26.73-47.85,46.48-65.4l-12.9-7.51c-.24.71-.63.87-.2.49.74-.65-.37.27-.6.59a18.52,18.52,0,0,0-2.2,4.73c-1.07,2.92-2,5.93-3,8.89-2.42,7.35-4.81,14.7-7,22.13-1.08,3.73-2.15,7.46-3.1,11.22a98.76,98.76,0,0,0-1.92,10.34,36.59,36.59,0,0,0-.52,5.09c0,1,.51,3.89.25,1.94.14,1,.24,2.09.45,3.12a10,10,0,0,0,4.4,7c2.25,1.44,4.81.64,6.7-.86-.86.68-.73.83.15-.1a11.54,11.54,0,0,0,2-2.33c.45-.78.77-1.66,1.15-2.46a66.52,66.52,0,0,0,3.26-8.7c2.2-6.91,3.83-14,5.83-21s4-14,6-21.06c.81-2.81,1.78-5.63,2.45-8.48a20.51,20.51,0,0,0,.7-5.22c-.06-2.27-.46.71,0-1.23,1.75-7.23-7.42-13.31-12.9-7.51-10.72,11.36-21,24.47-28.39,38.27-3.59,6.74-7.37,13.46-9.62,20.81C94.66,130,93,136.32,95,141.84a2,2,0,0,0,3.79,0Z"/><path class="cls-1" d="M128.21,140.06c3.37-5.21,6.46-10.66,9.7-16,3.89-6.38,8.52-12.29,12.86-18.36,3.86-5.4,8.07-10.53,12.42-15.55,1.9-2.2,3.8-4.46,5.88-6.5a13.39,13.39,0,0,1,1.29-1.21c1.18-.88-.92.82.15.12a38.41,38.41,0,0,0,3.83-2.89l-16.28-9.48c-6.12,18.45-14.84,37.25-16.72,56.75-.48,5-.08,10.78,3.68,14.51a14.81,14.81,0,0,0,2.8,2.21,12.13,12.13,0,0,0,2.8,1.2c1.14.32,4.68.7,1.83.29-3.12-.45,1.39.23,1.66.23a14.81,14.81,0,0,0,3-.4,21.49,21.49,0,0,0,4.26-1.69,19.87,19.87,0,0,0,2.2-1.26c.06,0,3.1-2.36,1.27-1,.81-.62,1.65-1.21,2.4-1.89a54.47,54.47,0,0,0,4.93-5.37,94.48,94.48,0,0,0,9.8-14.08c3.17-5.48,5.34-11.33,7.64-17.17,1.41-3.58,2-7.83,2.92-10.63a3.7,3.7,0,0,0-5.38-4.13c-6.83,4.25-10.88,13.71-15.51,20.66-3.09,4.63-6,9.49-9.87,13.53-1.84,1.91-2.87,2-5.05,3.55.86-.34.81-.38-.14-.11,1.23-.12,1.33-.14.29-.07.75.43,1.49.28,2.14.65l3.72,3.72c-1.11-1.54,1.09,2.93.32.79s.15-.15-.06.31a10.55,10.55,0,0,0,.06-2.82c.13-2.86-.33,1.22.15-1.29,1.21-6.23,2.62-12.39,4.29-18.51,3-10.83,7.55-21.73,9.32-32.84.69-4.34-.46-8.65-4.47-11-3.52-2.06-9-1.74-11.81,1.52a24,24,0,0,0-3.16,4.68c.15-.31-1.31,2.46-.63,1.35.6-.95-.48.56-.57.67A73.91,73.91,0,0,0,150.9,80c-4.22,6.12-8.1,12.47-12,18.82a195.81,195.81,0,0,0-10.43,20.53c-2.72,6-5.28,12.69-5.36,19.34,0,2.79,3.65,3.56,5.07,1.37Z"/><path class="cls-1" d="M202.93,64.86l-3.1-.13a11.19,11.19,0,0,0-9.77,5.61c-7.6,14.11-13.25,29.33-14.91,45.35-1.27,12.17,2.45,28.57,17.41,29.25,12.07.56,21.44-7.65,27.45-16a94.33,94.33,0,0,0,14.25-29.53c2.54-9.07,5.59-19.8,3.77-29.27-.61-3.18-5.65-3.09-6.33,0a110.43,110.43,0,0,1-8.51,24.6c-4.42,9-10.23,20.92-18.36,25.76-.93.55-1.93,1.06-2.91,1.53s-1.11.52-.2.1a13.51,13.51,0,0,1-1.67.53c-.57.14-1.14.27-1.72.38,2-.25,1.4-.17-1.75.25,1.38-.18,1.45-.22.22-.12,1.38.29,1.52.31.42.08-2.26-1.88,3.73,2.76,1.66.92-2.36-2.1,1,1.49-.28-.23,1.69,2.29.35.38-.09-1-.61-1.84-.15,1.81,0-1.13a61.49,61.49,0,0,1,2.76-17.56,154.39,154.39,0,0,1,8.38-22.5c1.61-3.5,2.46-8,0-11.42-1.81-2.53-3.24-5.34-6.67-5.48Z"/><path class="cls-1" d="M233.28,66.61c2.13-3.36-.47.57-.73,1a18.56,18.56,0,0,0-1.44,3.63c-.36,1.14-.58,2.33-.91,3.48-.77,2.7-1.53,5.41-2.37,8.09-1.92,6.12-4.12,12.15-6.08,18.27-3.27,10.18-8.43,23.42-4,33.93,6.66,15.85,24.26,8,33.32-.42,9.71-9,16.24-21.4,21.45-33.33,4.7-10.77,9.52-21.48,11.39-33.12.55-3.39-3.74-5.61-5.74-2.42-10.4,16.59-19.84,34.54-33.59,48.55a60.86,60.86,0,0,1-5.15,4.75c1.1-.88-1.19.85-1.7,1.15s-1,.51-1.53.77c-1.75.91,1-.27-.14,0-.85.24-1.69.46-2.55.67,3-.72.33-.35-.61-.23,3.35-.44,6,2.78,6.87,5.47-.78-2.31-.26,2,0,.54a12,12,0,0,0,0-2.24c-.09-2.69-.53,2.36,0-.57.24-1.26.48-2.52.77-3.77,1.17-5.09,2.76-10.08,4.35-15.06,1.9-5.9,3.77-11.83,5.41-17.81a65.88,65.88,0,0,0,1.8-8.08,48.11,48.11,0,0,0,.68-5.34c0-.54,0-.94,0-1.46-.05-1.21-2.55-7.94-.93-4.07-3.3-7.9-13.53-10.39-18.59-2.43Z"/><path class="cls-1" d="M311.81,16.3l1.41-.22L309,15.53,311.09,17,307.75,4.27c-2.41,5.06-5.73,9.9-8.36,14.89-5.07,9.65-9.83,19.47-14.71,29.22-10.91,21.82-22.17,43.94-29.9,67.14-.76,2.29-1.48,4.6-2.09,7-.26,1-.52,2-.72,3a20,20,0,0,0-.53,4c0,.46.75,5.39.37,2.63s.16,2.31.51,3.62a13.15,13.15,0,0,0,3.13,5.7,21.41,21.41,0,0,0,2,2.24c5.49,5,13.19,1.25,13.85-5.73-.18,1.9.1,1.24-.68,2.53.91-1.49-1.76,2-.57.71a16.32,16.32,0,0,0,3.14-5.67c.92-2.3,0-.42,0,.13,0-1.38,1.86-5.47,2.32-7.26.53-2.11,1.16-4.2,1.82-6.28,1.51-4.68,3.23-9.29,5-13.86q.71-1.78,1.44-3.57l.93-2.27c.13-.31.94-2.25.38-.92s.27-.63.41-.94l.81-1.89c.69-1.6,1.38-3.19,2.09-4.78,9.38-21.23,20-41.88,29.56-63,3-6.6,7.3-14.45,7.07-21.95-.35-12.16-17.42-11.73-18.59,0l-.12.25c-2.32,3.94,1.49,7.73,5.45,7.09Z"/><path class="cls-1" d="M269.11,137.66c4.21-14.71,10-28.7,18.64-41.39C294.06,87,304,75,316.05,73.77c3.62-.36,1.77.8.27-1.49a3.14,3.14,0,0,1-.24-1.91c.23.12-.83,1.9-.12.76a90.92,90.92,0,0,1-5.11,7.75c-6,7.83-13.39,14.56-20.91,20.87a101.84,101.84,0,0,1-12.3,9c-1.77,1.08-3.59,2.07-5.44,3-1.41.7-.17.09.12,0a12.16,12.16,0,0,1-1.43.51,23.37,23.37,0,0,1-2.34.55c-9.68,1.51-6.63,15.79,2.2,16.3,3.86.22,5.54.87,7.47,2.92,0,0,1.35,1.84,2.12,2.9a36.12,36.12,0,0,0,4,4.77c6.84,6.73,15.64,8,24.22,3.87,7.41-3.6,13.71-10.61,17.41-17.87a42.34,42.34,0,0,0,4.1-12.22c.43-2.62.06-3.81-.82-6.24-.39-1.1,0-.31.11.29a19.49,19.49,0,0,0-1.73-5.78c-1.62-3.19-6.41-2.92-8.1,0a11,11,0,0,0-1,1.59c0,.09-.89,1.95-.16.84s-1.95,1.52-1.85,1.42a12.36,12.36,0,0,0-1.74,2.55c-1.74,2.9-3.53,5.71-5.47,8.5a54.1,54.1,0,0,1-5.71,7.07c-.91.94-2.25,2.15-2.47,2.31-.62.45-3.51,1.9-2.37,1.43a13.48,13.48,0,0,0-1.68.48c1.27-.75-.13,0-.06-.07.26-.43.58.29.13.05l-.64-.34c-1.9-1.28-4.07-4.26-5-5.52-4.78-6.59-12-9.34-20.73-9.55l2.21,16.3c10.11-1.92,19.19-10.65,26.37-17.44,8.58-8.11,16.9-17.45,23.14-27.51,3.51-5.67,7.9-17.43-1.66-20.07-5.38-1.48-12,1.14-16.68,3.66-6.82,3.7-12.52,9.4-17.29,15.43-11.95,15.06-20.84,34.93-21,54.39a1.69,1.69,0,0,0,3.31.44Z"/><path class="cls-1" d="M334.93,110.17c15,7.8,31.14-13.13,36.31-25.12,4.18-9.68,1.14-20.12-9.93-23.16S341,66.59,333.88,74.06c-12.63,13.26-23.88,36.1-18.09,54.77,3.17,10.22,11.86,16.47,22.46,17s20.1-5.27,27.67-12c15.52-13.73,30.13-38.48,18.73-59-1.67-3-6-1.49-6.2,1.68-.32,6.4-3.08,11.83-5.92,17.4a77.06,77.06,0,0,1-12,17.39,36.82,36.82,0,0,1-6.66,6c-1.28.85-2.59,1.65-3.94,2.37a26.73,26.73,0,0,1-2.53,1.22c1.38-.56-.34.08-.9.23a41.25,41.25,0,0,1-4.51,1.12c2.45-.38-.93-.14-1.82-.09-.65,0-1.28,0-1.93,0,2.68,0,.58.37-.09-.09-1.43-1-.51.24-.43-.06s1.14.85,1,.68c-1.27-2.15,1.42,1.83-.55-.78.32.43.6,2.54.31.7a9.85,9.85,0,0,0-.43-1.56c-.71-1.69,0,0,0,.61-.05-.59-.12-1.19-.13-1.79,0-1.61,0-3.19.19-4.8-.23,2.73.4-2,.54-2.58.37-1.63.79-3.27,1.26-4.88s.93-3,1.47-4.43a33.07,33.07,0,0,1,1.66-3.9c2.18-4.94,6.11-12.46,10.4-16.94a32.21,32.21,0,0,1,3.16-3c1.64-1.29-.33-.27.65-.23.3,0,1.39.24,1.39.24-.25.54-.81-2.25-.7-2,.44.75.14,0,0,.28-2.48,5.95-4.71,11.62-8.73,16.88a56.33,56.33,0,0,1-6.88,7.67c-1.28,1.13-4.4,4-5.65,3.83-2.4-.34-4.39,2.94-1.81,4.28Z"/><path class="cls-1" d="M88.2,152.36a.05.05,0,0,0,0-.1.05.05,0,1,0,0,.1Z"/><path class="cls-1" d="M7,142.26a299.51,299.51,0,0,0,40-53A256.57,256.57,0,0,0,61.88,59.88c2.18-5.08,4.08-10.27,6-15.45,1.74-4.73,4-10.55,4-15.62,0-2.32-3.23-4-4.88-2-3.11,3.68-5.13,9-7.07,13.37-2.17,4.92-4.58,9.7-6.92,14.55-4.64,9.62-9.63,19.11-14.86,28.44A329,329,0,0,1,1.08,136.36c-3.46,4,2.17,9.85,5.9,5.9Z"/><path class="cls-1" d="M92.51,173.56c-2,.49-3.67.15-5.64,0l4.43,2.54-.79-1.13-7,12.13c4.09.38,7.12-1.43,10.76-2.89a70,70,0,0,1,9.92-2.9c7.5-1.77,15.14-3.06,22.75-4.28,16.78-2.69,33.51-4.83,50.49-5.87A681.68,681.68,0,0,1,281,172.32c9.74.88,19.5,1.74,29.21,2.82,8.8,1,17.93,1.41,26.61,3,3.81.71,6.25-4.24,2.71-6.43-6.92-4.27-13.9-6.28-21.88-7.65-8.67-1.5-17.29-3.21-26-4.5-18.46-2.75-37.21-5.47-55.83-6.65-36.36-2.3-73.52-2.19-109.59,3.47-9.18,1.44-18.41,3-27.44,5.21-8.71,2.13-20.22,5.76-23,15.25-2.52,8.52,11,14.74,14.73,6.21.83-1.91,3-3.66,4.51-5.21a2.6,2.6,0,0,0-2.51-4.31Z"/></g></g></svg>